<svg width="44" height="44" viewBox="0 0 44 44" fill="none" xmlns="http://www.w3.org/2000/svg">
<g id="noto:fire">
<path id="Vector" d="M12.2238 14.0009C12.0278 16.0909 11.8903 19.7897 13.1244 21.3641C13.1244 21.3641 12.5434 17.3009 17.7513 12.2031C19.8481 10.1509 20.3328 7.35969 19.6006 5.26625C19.1847 4.08031 18.425 3.10062 17.765 2.41656C17.38 2.01437 17.6756 1.35094 18.2359 1.375C21.6253 1.52625 27.1184 2.46812 29.4525 8.32562C30.4769 10.8969 30.5525 13.5541 30.0644 16.2559C29.755 17.9816 28.655 21.8178 31.1644 22.2887C32.9553 22.6256 33.8216 21.2025 34.21 20.1781C34.3716 19.7519 34.9319 19.6453 35.2344 19.9856C38.2594 23.4266 38.5172 27.4794 37.8916 30.9684C36.6816 37.7128 29.8513 42.6216 23.0656 42.6216C14.5888 42.6216 7.84094 37.7712 6.09125 28.9919C5.38657 25.4478 5.74407 18.4353 11.2097 13.4853C11.6153 13.1141 12.2788 13.4441 12.2238 14.0009Z" fill="url(#paint0_radial_11_55)"/>
<path id="Vector_2" d="M26.1628 26.6131C23.0381 22.5912 24.4372 18.0022 25.2037 16.1734C25.3069 15.9328 25.0319 15.7059 24.8153 15.8538C23.4712 16.7681 20.7178 18.92 19.4356 21.9484C17.6997 26.0425 17.8234 28.0466 18.8512 30.4941C19.47 31.9688 18.7516 32.2816 18.3906 32.3366C18.04 32.3916 17.7169 32.1578 17.4591 31.9137C16.7174 31.2017 16.1888 30.297 15.9328 29.3013C15.8778 29.0881 15.5994 29.0297 15.4722 29.205C14.5097 30.5353 14.0112 32.67 13.9872 34.1791C13.9116 38.8438 17.765 42.625 22.4262 42.625C28.3009 42.625 32.5806 36.1281 29.205 30.6969C28.2253 29.1156 27.3041 28.0809 26.1628 26.6131Z" fill="url(#paint1_radial_11_55)"/>
</g>
<defs>
<radialGradient id="paint0_radial_11_55" cx="0" cy="0" r="1" gradientUnits="userSpaceOnUse" gradientTransform="translate(21.3867 42.7284) rotate(-179.751) scale(24.2645 39.8132)">
<stop offset="0.314" stop-color="#FF9800"/>
<stop offset="0.662" stop-color="#FF6D00"/>
<stop offset="0.972" stop-color="#F44336"/>
</radialGradient>
<radialGradient id="paint1_radial_11_55" cx="0" cy="0" r="1" gradientUnits="userSpaceOnUse" gradientTransform="translate(22.7493 18.5826) rotate(90.5787) scale(25.3881 19.1065)">
<stop offset="0.214" stop-color="#FFF176"/>
<stop offset="0.328" stop-color="#FFF27D"/>
<stop offset="0.487" stop-color="#FFF48F"/>
<stop offset="0.672" stop-color="#FFF7AD"/>
<stop offset="0.793" stop-color="#FFF9C4"/>
<stop offset="0.822" stop-color="#FFF8BD" stop-opacity="0.804"/>
<stop offset="0.863" stop-color="#FFF6AB" stop-opacity="0.529"/>
<stop offset="0.91" stop-color="#FFF38D" stop-opacity="0.209"/>
<stop offset="0.941" stop-color="#FFF176" stop-opacity="0"/>
</radialGradient>
</defs>
</svg>
