<svg width="22" height="22" viewBox="0 0 22 22" fill="none" xmlns="http://www.w3.org/2000/svg">
<g id="octicon:search-16">
<path id="Vector" d="M14.685 16.1425C13.0273 17.4292 10.9415 18.0359 8.85219 17.8389C6.76292 17.642 4.82721 16.6563 3.4391 15.0825C2.05099 13.5086 1.31482 11.4649 1.38043 9.36743C1.44603 7.26992 2.30849 5.27625 3.79225 3.79224C5.27627 2.30848 7.26994 1.44602 9.36745 1.38041C11.465 1.3148 13.5086 2.05098 15.0825 3.43909C16.6563 4.8272 17.642 6.7629 17.839 8.85217C18.0359 10.9414 17.4292 13.0272 16.1425 14.685L20.3225 18.865C20.4582 18.991 20.5575 19.1514 20.6098 19.3291C20.662 19.5068 20.6654 19.6953 20.6195 19.8748C20.5736 20.0543 20.4802 20.218 20.349 20.3489C20.2179 20.4797 20.0538 20.5727 19.8743 20.6181C19.695 20.6641 19.5066 20.6609 19.329 20.6088C19.1514 20.5568 18.9911 20.4579 18.865 20.3225L14.685 16.1425ZM15.8125 9.62499C15.8247 8.80494 15.6738 7.99065 15.3684 7.22949C15.0631 6.46832 14.6094 5.77547 14.0338 5.19124C13.4582 4.60701 12.7722 4.14306 12.0157 3.82639C11.2591 3.50972 10.4472 3.34664 9.62706 3.34664C8.80693 3.34664 7.99498 3.50972 7.23845 3.82639C6.48192 4.14306 5.79591 4.60701 5.22033 5.19124C4.64474 5.77547 4.19108 6.46832 3.88572 7.22949C3.58036 7.99065 3.4294 8.80494 3.44163 9.62499C3.46585 11.2495 4.12818 12.7993 5.28554 13.9395C6.4429 15.0797 8.00237 15.7189 9.62706 15.7189C11.2518 15.7189 12.8112 15.0797 13.9686 13.9395C15.1259 12.7993 15.7883 11.2495 15.8125 9.62499Z" fill="url(#paint0_linear_11_59)"/>
</g>
<defs>
<linearGradient id="paint0_linear_11_59" x1="11.014" y1="1.37637" x2="11.014" y2="20.6504" gradientUnits="userSpaceOnUse">
<stop stop-color="#775A85"/>
<stop offset="1" stop-color="#C97FEC"/>
</linearGradient>
</defs>
</svg>
