<svg width="10" height="11" viewBox="0 0 10 11" fill="none" xmlns="http://www.w3.org/2000/svg">
<path d="M8.91359 11C8.78026 11 8.65359 10.98 8.53359 10.94C8.41359 10.9 8.30026 10.8133 8.19359 10.68L4.69359 6.48L3.97359 5.76L0.493594 1.64C0.32026 1.42667 0.226927 1.2 0.213594 0.959999C0.20026 0.706666 0.266927 0.493333 0.413594 0.319999C0.56026 0.146666 0.78026 0.059999 1.07359 0.059999C1.39359 0.059999 1.64693 0.173332 1.83359 0.399999L5.25359 4.48L5.77359 4.96L9.53359 9.46C9.73359 9.7 9.82693 9.94 9.81359 10.18C9.81359 10.4067 9.72693 10.6 9.55359 10.76C9.39359 10.92 9.18026 11 8.91359 11ZM1.27359 11C1.00693 11 0.793594 10.92 0.633594 10.76C0.486927 10.5867 0.413594 10.38 0.413594 10.14C0.413594 9.9 0.506927 9.66 0.693594 9.42L4.09359 5.16L5.17359 6.68L1.99359 10.68C1.79359 10.8933 1.55359 11 1.27359 11ZM6.21359 5.86L4.83359 4.68L8.05359 0.399999C8.16026 0.266666 8.27359 0.179999 8.39359 0.139999C8.51359 0.0866657 8.64693 0.059999 8.79359 0.059999C9.08693 0.059999 9.30693 0.153332 9.45359 0.339999C9.60026 0.513332 9.66693 0.726666 9.65359 0.979999C9.65359 1.23333 9.56026 1.48 9.37359 1.72L6.21359 5.86Z" fill="#8E8E8E"/>
</svg>
