<svg width="19" height="16" viewBox="0 0 19 16" fill="none" xmlns="http://www.w3.org/2000/svg">
<path id="Vector" d="M10.1852 4.5H8.33333V2.5H10.1852V4.5ZM10.1852 9H8.33333V7H10.1852V9ZM10.1852 13.5H8.33333V11.5H10.1852V13.5ZM18.5185 6V2C18.5185 1.46957 18.3234 0.960859 17.9761 0.585786C17.6288 0.210714 17.1578 0 16.6667 0H1.85185C1.36071 0 0.889684 0.210714 0.542395 0.585786C0.195105 0.960859 0 1.46957 0 2V6C0.491142 6 0.962168 6.21071 1.30946 6.58579C1.65675 6.96086 1.85185 7.46957 1.85185 8C1.85185 8.53043 1.65675 9.03914 1.30946 9.41421C0.962168 9.78929 0.491142 10 0 10V14C0 14.5304 0.195105 15.0391 0.542395 15.4142C0.889684 15.7893 1.36071 16 1.85185 16H16.6667C17.1578 16 17.6288 15.7893 17.9761 15.4142C18.3234 15.0391 18.5185 14.5304 18.5185 14V10C18.0274 10 17.5564 9.78929 17.2091 9.41421C16.8618 9.03914 16.6667 8.53043 16.6667 8C16.6667 7.46957 16.8618 6.96086 17.2091 6.58579C17.5564 6.21071 18.0274 6 18.5185 6Z" fill="#D9D9D9"/>
</svg>
